<svg xmlns="http://www.w3.org/2000/svg" width="1184" height="176"><style>line, path, circle,rect,polygon {
    stroke: black;
    stroke-width: 2;
    stroke-opacity: 1;
    fill-opacity: 1;
    stroke-linecap: round;
    stroke-linejoin: miter;
    }

    text {
    fill: black;
    }
    rect.backdrop{
    stroke: none;
    fill: white;
    }
    .broken{
    stroke-dasharray: 8;
    }
    .filled{
    fill: black;
    }
    .bg_filled{
    fill: white;
    }
    .nofill{
    fill: white;
    }

    text {
    font-family: monospace;
    font-size: 14px;
    }

    .end_marked_arrow{
    marker-end: url(#arrow);
    }
    .start_marked_arrow{
    marker-start: url(#arrow);
    }

    .end_marked_diamond{
    marker-end: url(#diamond);
    }
    .start_marked_diamond{
    marker-start: url(#diamond);
    }

    .end_marked_circle{
    marker-end: url(#circle);
    }
    .start_marked_circle{
    marker-start: url(#circle);
    }

    .end_marked_open_circle{
    marker-end: url(#open_circle);
    }
    .start_marked_open_circle{
    marker-start: url(#open_circle);
    }

    .end_marked_big_open_circle{
    marker-end: url(#big_open_circle);
    }
    .start_marked_big_open_circle{
    marker-start: url(#big_open_circle);
    }


</style><defs><marker id="arrow" viewBox="-2 -2 8 8" refX="4" refY="2" markerWidth="7" markerHeight="7" orient="auto-start-reverse"><polygon points="0,0 0,4 4,2 0,0"></polygon></marker><marker id="diamond" viewBox="-2 -2 8 8" refX="4" refY="2" markerWidth="7" markerHeight="7" orient="auto-start-reverse"><polygon points="0,2 2,0 4,2 2,4 0,2"></polygon></marker><marker id="circle" viewBox="0 0 8 8" refX="4" refY="4" markerWidth="7" markerHeight="7" orient="auto-start-reverse"><circle cx="4" cy="4" r="2" class="filled"></circle></marker><marker id="open_circle" viewBox="0 0 8 8" refX="4" refY="4" markerWidth="7" markerHeight="7" orient="auto-start-reverse"><circle cx="4" cy="4" r="2" class="bg_filled"></circle></marker><marker id="big_open_circle" viewBox="0 0 8 8" refX="4" refY="4" markerWidth="7" markerHeight="7" orient="auto-start-reverse"><circle cx="4" cy="4" r="3" class="bg_filled"></circle></marker></defs><rect class="backdrop" x="0" y="0" width="1184" height="176"></rect><text x="26" y="124">D</text><text x="98" y="124">a</text><text x="170" y="124">p</text><text x="242" y="124">h</text><text x="314" y="124">n</text><text x="386" y="124">a</text><text x="482" y="124">B</text><text x="554" y="124">e</text><text x="626" y="124">l</text><text x="698" y="124">j</text><text x="770" y="124">a</text><text x="842" y="124">v</text><text x="914" y="124">s</text><text x="986" y="124">k</text><text x="1058" y="124">i</text><text x="1130" y="124">j</text><g><line x1="4" y1="64" x2="68" y2="64" class="solid"></line><line x1="4" y1="64" x2="4" y2="160" class="solid"></line><line x1="8" y1="64" x2="20" y2="88" class="solid"></line><line x1="64" y1="64" x2="52" y2="88" class="solid"></line><line x1="68" y1="64" x2="68" y2="160" class="solid"></line><line x1="20" y1="88" x2="52" y2="88" class="solid"></line><line x1="20" y1="88" x2="20" y2="136" class="solid"></line><line x1="52" y1="88" x2="52" y2="136" class="solid"></line><line x1="20" y1="136" x2="52" y2="136" class="solid"></line><line x1="20" y1="136" x2="8" y2="160" class="solid"></line><line x1="52" y1="136" x2="64" y2="160" class="solid"></line><line x1="8" y1="160" x2="64" y2="160" class="solid"></line></g><g><line x1="76" y1="64" x2="140" y2="64" class="solid"></line><line x1="76" y1="64" x2="76" y2="160" class="solid"></line><line x1="80" y1="64" x2="92" y2="88" class="solid"></line><line x1="136" y1="64" x2="124" y2="88" class="solid"></line><line x1="140" y1="64" x2="140" y2="160" class="solid"></line><line x1="92" y1="88" x2="124" y2="88" class="solid"></line><line x1="92" y1="88" x2="92" y2="136" class="solid"></line><line x1="124" y1="88" x2="124" y2="136" class="solid"></line><line x1="92" y1="136" x2="124" y2="136" class="solid"></line><line x1="92" y1="136" x2="80" y2="160" class="solid"></line><line x1="124" y1="136" x2="136" y2="160" class="solid"></line><line x1="80" y1="160" x2="136" y2="160" class="solid"></line></g><g><line x1="148" y1="64" x2="212" y2="64" class="solid"></line><line x1="148" y1="64" x2="148" y2="160" class="solid"></line><line x1="152" y1="64" x2="164" y2="88" class="solid"></line><line x1="208" y1="64" x2="196" y2="88" class="solid"></line><line x1="212" y1="64" x2="212" y2="160" class="solid"></line><line x1="164" y1="88" x2="196" y2="88" class="solid"></line><line x1="164" y1="88" x2="164" y2="136" class="solid"></line><line x1="196" y1="88" x2="196" y2="136" class="solid"></line><line x1="164" y1="136" x2="196" y2="136" class="solid"></line><line x1="164" y1="136" x2="152" y2="160" class="solid"></line><line x1="196" y1="136" x2="208" y2="160" class="solid"></line><line x1="152" y1="160" x2="208" y2="160" class="solid"></line></g><g><line x1="220" y1="64" x2="284" y2="64" class="solid"></line><line x1="220" y1="64" x2="220" y2="160" class="solid"></line><line x1="224" y1="64" x2="236" y2="88" class="solid"></line><line x1="280" y1="64" x2="268" y2="88" class="solid"></line><line x1="284" y1="64" x2="284" y2="160" class="solid"></line><line x1="236" y1="88" x2="268" y2="88" class="solid"></line><line x1="236" y1="88" x2="236" y2="136" class="solid"></line><line x1="268" y1="88" x2="268" y2="136" class="solid"></line><line x1="236" y1="136" x2="268" y2="136" class="solid"></line><line x1="236" y1="136" x2="224" y2="160" class="solid"></line><line x1="268" y1="136" x2="280" y2="160" class="solid"></line><line x1="224" y1="160" x2="280" y2="160" class="solid"></line></g><g><line x1="292" y1="64" x2="356" y2="64" class="solid"></line><line x1="292" y1="64" x2="292" y2="160" class="solid"></line><line x1="296" y1="64" x2="308" y2="88" class="solid"></line><line x1="352" y1="64" x2="340" y2="88" class="solid"></line><line x1="356" y1="64" x2="356" y2="160" class="solid"></line><line x1="308" y1="88" x2="340" y2="88" class="solid"></line><line x1="308" y1="88" x2="308" y2="136" class="solid"></line><line x1="340" y1="88" x2="340" y2="136" class="solid"></line><line x1="308" y1="136" x2="340" y2="136" class="solid"></line><line x1="308" y1="136" x2="296" y2="160" class="solid"></line><line x1="340" y1="136" x2="352" y2="160" class="solid"></line><line x1="296" y1="160" x2="352" y2="160" class="solid"></line></g><g><line x1="364" y1="64" x2="428" y2="64" class="solid"></line><line x1="364" y1="64" x2="364" y2="160" class="solid"></line><line x1="368" y1="64" x2="380" y2="88" class="solid"></line><line x1="424" y1="64" x2="412" y2="88" class="solid"></line><line x1="428" y1="64" x2="428" y2="160" class="solid"></line><line x1="380" y1="88" x2="412" y2="88" class="solid"></line><line x1="380" y1="88" x2="380" y2="136" class="solid"></line><line x1="412" y1="88" x2="412" y2="136" class="solid"></line><line x1="380" y1="136" x2="412" y2="136" class="solid"></line><line x1="380" y1="136" x2="368" y2="160" class="solid"></line><line x1="412" y1="136" x2="424" y2="160" class="solid"></line><line x1="368" y1="160" x2="424" y2="160" class="solid"></line></g><g><line x1="460" y1="64" x2="524" y2="64" class="solid"></line><line x1="460" y1="64" x2="460" y2="160" class="solid"></line><line x1="464" y1="64" x2="476" y2="88" class="solid"></line><line x1="520" y1="64" x2="508" y2="88" class="solid"></line><line x1="524" y1="64" x2="524" y2="160" class="solid"></line><line x1="476" y1="88" x2="508" y2="88" class="solid"></line><line x1="476" y1="88" x2="476" y2="136" class="solid"></line><line x1="508" y1="88" x2="508" y2="136" class="solid"></line><line x1="476" y1="136" x2="508" y2="136" class="solid"></line><line x1="476" y1="136" x2="464" y2="160" class="solid"></line><line x1="508" y1="136" x2="520" y2="160" class="solid"></line><line x1="464" y1="160" x2="520" y2="160" class="solid"></line></g><g><line x1="532" y1="64" x2="596" y2="64" class="solid"></line><line x1="532" y1="64" x2="532" y2="160" class="solid"></line><line x1="536" y1="64" x2="548" y2="88" class="solid"></line><line x1="592" y1="64" x2="580" y2="88" class="solid"></line><line x1="596" y1="64" x2="596" y2="160" class="solid"></line><line x1="548" y1="88" x2="580" y2="88" class="solid"></line><line x1="548" y1="88" x2="548" y2="136" class="solid"></line><line x1="580" y1="88" x2="580" y2="136" class="solid"></line><line x1="548" y1="136" x2="580" y2="136" class="solid"></line><line x1="548" y1="136" x2="536" y2="160" class="solid"></line><line x1="580" y1="136" x2="592" y2="160" class="solid"></line><line x1="536" y1="160" x2="592" y2="160" class="solid"></line></g><g><line x1="604" y1="64" x2="668" y2="64" class="solid"></line><line x1="604" y1="64" x2="604" y2="160" class="solid"></line><line x1="608" y1="64" x2="620" y2="88" class="solid"></line><line x1="664" y1="64" x2="652" y2="88" class="solid"></line><line x1="668" y1="64" x2="668" y2="160" class="solid"></line><line x1="620" y1="88" x2="652" y2="88" class="solid"></line><line x1="620" y1="88" x2="620" y2="136" class="solid"></line><line x1="652" y1="88" x2="652" y2="136" class="solid"></line><line x1="620" y1="136" x2="652" y2="136" class="solid"></line><line x1="620" y1="136" x2="608" y2="160" class="solid"></line><line x1="652" y1="136" x2="664" y2="160" class="solid"></line><line x1="608" y1="160" x2="664" y2="160" class="solid"></line></g><g><line x1="676" y1="64" x2="740" y2="64" class="solid"></line><line x1="676" y1="64" x2="676" y2="160" class="solid"></line><line x1="680" y1="64" x2="692" y2="88" class="solid"></line><line x1="736" y1="64" x2="724" y2="88" class="solid"></line><line x1="740" y1="64" x2="740" y2="160" class="solid"></line><line x1="692" y1="88" x2="724" y2="88" class="solid"></line><line x1="692" y1="88" x2="692" y2="136" class="solid"></line><line x1="724" y1="88" x2="724" y2="136" class="solid"></line><line x1="692" y1="136" x2="724" y2="136" class="solid"></line><line x1="692" y1="136" x2="680" y2="160" class="solid"></line><line x1="724" y1="136" x2="736" y2="160" class="solid"></line><line x1="680" y1="160" x2="736" y2="160" class="solid"></line></g><g><line x1="748" y1="64" x2="812" y2="64" class="solid"></line><line x1="748" y1="64" x2="748" y2="160" class="solid"></line><line x1="752" y1="64" x2="764" y2="88" class="solid"></line><line x1="808" y1="64" x2="796" y2="88" class="solid"></line><line x1="812" y1="64" x2="812" y2="160" class="solid"></line><line x1="764" y1="88" x2="796" y2="88" class="solid"></line><line x1="764" y1="88" x2="764" y2="136" class="solid"></line><line x1="796" y1="88" x2="796" y2="136" class="solid"></line><line x1="764" y1="136" x2="796" y2="136" class="solid"></line><line x1="764" y1="136" x2="752" y2="160" class="solid"></line><line x1="796" y1="136" x2="808" y2="160" class="solid"></line><line x1="752" y1="160" x2="808" y2="160" class="solid"></line></g><g><line x1="820" y1="64" x2="884" y2="64" class="solid"></line><line x1="820" y1="64" x2="820" y2="160" class="solid"></line><line x1="824" y1="64" x2="836" y2="88" class="solid"></line><line x1="880" y1="64" x2="868" y2="88" class="solid"></line><line x1="884" y1="64" x2="884" y2="160" class="solid"></line><line x1="836" y1="88" x2="868" y2="88" class="solid"></line><line x1="836" y1="88" x2="836" y2="136" class="solid"></line><line x1="868" y1="88" x2="868" y2="136" class="solid"></line><line x1="836" y1="136" x2="868" y2="136" class="solid"></line><line x1="836" y1="136" x2="824" y2="160" class="solid"></line><line x1="868" y1="136" x2="880" y2="160" class="solid"></line><line x1="824" y1="160" x2="880" y2="160" class="solid"></line></g><g><line x1="892" y1="64" x2="956" y2="64" class="solid"></line><line x1="892" y1="64" x2="892" y2="160" class="solid"></line><line x1="896" y1="64" x2="908" y2="88" class="solid"></line><line x1="952" y1="64" x2="940" y2="88" class="solid"></line><line x1="956" y1="64" x2="956" y2="160" class="solid"></line><line x1="908" y1="88" x2="940" y2="88" class="solid"></line><line x1="908" y1="88" x2="908" y2="136" class="solid"></line><line x1="940" y1="88" x2="940" y2="136" class="solid"></line><line x1="908" y1="136" x2="940" y2="136" class="solid"></line><line x1="908" y1="136" x2="896" y2="160" class="solid"></line><line x1="940" y1="136" x2="952" y2="160" class="solid"></line><line x1="896" y1="160" x2="952" y2="160" class="solid"></line></g><g><line x1="964" y1="64" x2="1028" y2="64" class="solid"></line><line x1="964" y1="64" x2="964" y2="160" class="solid"></line><line x1="968" y1="64" x2="980" y2="88" class="solid"></line><line x1="1024" y1="64" x2="1012" y2="88" class="solid"></line><line x1="1028" y1="64" x2="1028" y2="160" class="solid"></line><line x1="980" y1="88" x2="1012" y2="88" class="solid"></line><line x1="980" y1="88" x2="980" y2="136" class="solid"></line><line x1="1012" y1="88" x2="1012" y2="136" class="solid"></line><line x1="980" y1="136" x2="1012" y2="136" class="solid"></line><line x1="980" y1="136" x2="968" y2="160" class="solid"></line><line x1="1012" y1="136" x2="1024" y2="160" class="solid"></line><line x1="968" y1="160" x2="1024" y2="160" class="solid"></line></g><g><line x1="1036" y1="64" x2="1100" y2="64" class="solid"></line><line x1="1036" y1="64" x2="1036" y2="160" class="solid"></line><line x1="1040" y1="64" x2="1052" y2="88" class="solid"></line><line x1="1096" y1="64" x2="1084" y2="88" class="solid"></line><line x1="1100" y1="64" x2="1100" y2="160" class="solid"></line><line x1="1052" y1="88" x2="1084" y2="88" class="solid"></line><line x1="1052" y1="88" x2="1052" y2="136" class="solid"></line><line x1="1084" y1="88" x2="1084" y2="136" class="solid"></line><line x1="1052" y1="136" x2="1084" y2="136" class="solid"></line><line x1="1052" y1="136" x2="1040" y2="160" class="solid"></line><line x1="1084" y1="136" x2="1096" y2="160" class="solid"></line><line x1="1040" y1="160" x2="1096" y2="160" class="solid"></line></g><g><line x1="1108" y1="64" x2="1172" y2="64" class="solid"></line><line x1="1108" y1="64" x2="1108" y2="160" class="solid"></line><line x1="1112" y1="64" x2="1124" y2="88" class="solid"></line><line x1="1168" y1="64" x2="1156" y2="88" class="solid"></line><line x1="1172" y1="64" x2="1172" y2="160" class="solid"></line><line x1="1124" y1="88" x2="1156" y2="88" class="solid"></line><line x1="1124" y1="88" x2="1124" y2="136" class="solid"></line><line x1="1156" y1="88" x2="1156" y2="136" class="solid"></line><line x1="1124" y1="136" x2="1156" y2="136" class="solid"></line><line x1="1124" y1="136" x2="1112" y2="160" class="solid"></line><line x1="1156" y1="136" x2="1168" y2="160" class="solid"></line><line x1="1112" y1="160" x2="1168" y2="160" class="solid"></line></g></svg>